<svg id="Layer_1" data-name="Layer 1" xmlns="http://www.w3.org/2000/svg" viewBox="0 0 400 300" width="406" height="306" class="illustration styles_illustrationTablet__1DWOa"><title>_</title><path d="M113.21,62.74c-33.51,10.9-63,39.61-64.63,79.17-.91,22,3.88,78.44,73.6,93.1,111.91,23.54,212.56,15.58,233.69-41.08,18.82-50.46-11-117.58-66.89-131.43C249.59,52.75,178.67,41.44,113.21,62.74Z" fill="#e6e6e6" opacity="0.3"></path><rect x="102.38" y="47.33" width="196.19" height="174.72" fill="#e6e6e6"></rect><circle cx="117.91" cy="62.74" r="4.69" fill="#ffd200"></circle><circle cx="131.12" cy="62.74" r="4.69" fill="#68e1fd"></circle><circle cx="143.78" cy="62.74" r="4.69" fill="#24285b"></circle><rect x="164.56" y="57.32" width="72.67" height="10.84" fill="#fff"></rect><path d="M199.1,95.17s20.69,20,10.11,38.73c-.34.6-.69,1.17-1.06,1.74-5,7.68-12.81,13.06-21,16.8a76.66,76.66,0,0,1-9.94,3.72c-2.7.81-6.13,1.1-8,3.44a13.11,13.11,0,0,0-1.66,3A28.35,28.35,0,0,0,165,171.2c-.24,2.81.58,5.57.72,8.39.42,8.61-2.77,17.12-7.62,24.26a73.39,73.39,0,0,1-10.32,11.88c-1.9,1.8-3.85,3.62-5.9,5.26-1.49,1.18-2.27,1.07-4.09,1-5.21,0-10.42,0-15.63,0l18.3-48.12,15.79-31s28.24-1.09,37.06-12.56S199.1,95.17,199.1,95.17Z" opacity="0.09"></path><rect x="234.75" y="81.12" width="89.95" height="123.54" fill="#24285b"></rect><path d="M111.86,187.91s14.19-37.41,34.87-34.22,22.31,65.7-29,64.55Z" fill="#f4a28c"></path><path d="M159.92,183.47c-1.31,10.88-6.68,22.13-17.48,28.79a40.86,40.86,0,0,1-16.67,5.61,56.64,56.64,0,0,1-8.07.37l-5.85-30.33s14.2-37.41,34.88-34.22c6,.93,10.43,6.9,12.39,14.86A42.41,42.41,0,0,1,159.92,183.47Z" opacity="0.1"></path><path d="M159.92,183.47c-5.14,6-14.29,9.48-15.86,18.75-.56,3.31-1.12,6.8-1.62,10a40.86,40.86,0,0,1-16.67,5.61l3-19.5L158,167.49a12.65,12.65,0,0,1,1.09,1.06A42.41,42.41,0,0,1,159.92,183.47Z" opacity="0.1"></path><rect x="147.35" y="140.94" width="12.47" height="25.75" transform="translate(54.91 -39.86) rotate(17.96)" fill="#68e1fd"></rect><path d="M178.74,77a37.14,37.14,0,1,0,23.88,46.78A37.14,37.14,0,0,0,178.74,77Zm-20.07,61.9a27.94,27.94,0,1,1,35.19-18A27.94,27.94,0,0,1,158.67,138.87Z" fill="#24285b"></path><rect x="134.75" y="157.95" width="20.76" height="43.85" rx="4.72" transform="translate(62.53 -35.99) rotate(17.96)" fill="#24285b"></rect><path d="M130.28,176.05s18.49-13.87,25.16-11.36c5.5,2.08,3.76,13.41-10.09,20.92a22.26,22.26,0,0,0-11.2,14.7c-1.16,5.22-3.87,11.22-10,15.13-12.79,8.23-19.8-1.74-16.63-15S112.07,183.27,130.28,176.05Z" fill="#f4a28c"></path><polygon points="121.94 252.67 130.74 214.25 101.68 200.31 76.81 252.67 121.94 252.67" fill="#68e1fd"></polygon><polygon points="121.94 252.67 130.74 214.25 116.87 207.59 103.92 252.67 121.94 252.67" opacity="0.1"></polygon><rect x="266.21" y="108.64" width="19.46" height="5.58" fill="#c1c1c1" opacity="0.43"></rect><circle cx="253.24" cy="112.63" r="7.42" fill="#c1c1c1" opacity="0.36"></circle><rect x="251.18" y="176.83" width="40.61" height="11.86" fill="#68e1fd"></rect><rect x="251.18" y="129.01" width="39.96" height="4.93" fill="#c1c1c1"></rect><rect x="251.18" y="141.91" width="62.45" height="4.93" fill="#c1c1c1" opacity="0.44"></rect><rect x="251.18" y="152.71" width="62.45" height="4.93" fill="#c1c1c1" opacity="0.44"></rect><rect x="251.18" y="163.93" width="49.02" height="4.93" fill="#c1c1c1" opacity="0.44"></rect><circle cx="243.47" cy="90.96" r="3.37" fill="#ffd200"></circle><circle cx="252.97" cy="90.96" r="3.37" fill="#68e1fd"></circle><circle cx="262.07" cy="90.96" r="3.37" fill="#fff"></circle><path d="M167.59,135.74A23.45,23.45,0,1,1,191,112.3,23.47,23.47,0,0,1,167.59,135.74Zm0-40.57a17.13,17.13,0,1,0,17.13,17.13A17.14,17.14,0,0,0,167.59,95.17Z" fill="#c9c9c9"></path><path d="M167.59,135.74a23.41,23.41,0,0,1-15.55-5.9l4.19-4.72a17.08,17.08,0,0,0,11.36,4.31Z" fill="#24285b"></path><path d="M191,112.3h-6.31a17.15,17.15,0,0,0-17.13-17.13V88.85A23.47,23.47,0,0,1,191,112.3Z" fill="#68e1fd"></path><path d="M167.59,135.74v-6.31a17.16,17.16,0,0,0,17.13-17.13H191A23.47,23.47,0,0,1,167.59,135.74Z" fill="#ffd200"></path><rect x="174.03" y="186.11" width="9.66" height="15.67" opacity="0.08"></rect><rect x="190.32" y="169.28" width="9.66" height="32.51" opacity="0.08"></rect><rect x="207.5" y="157.96" width="9.66" height="43.83" opacity="0.08"></rect><path d="M275,53.31a14.6,14.6,0,0,1,5.53,1,13.52,13.52,0,0,1,4.09,2.46c.48.41.92.85,1.36,1.29a1.49,1.49,0,0,1-2.05,2.15c-.45-.4-.85-.84-1.3-1.23a11.23,11.23,0,0,0-13.9-.49,16.31,16.31,0,0,0-2,1.76,1.73,1.73,0,0,1-1.06.62,1.48,1.48,0,0,1-1.47-.69,1.39,1.39,0,0,1,.11-1.7,16.75,16.75,0,0,1,2.86-2.59,14,14,0,0,1,4.16-2A13.27,13.27,0,0,1,275,53.31Z" fill="#68e1fd"></path><path d="M275.73,58.71a8.89,8.89,0,0,1,3.41.86,9.43,9.43,0,0,1,3.1,2.44,1.59,1.59,0,0,1,0,2.08,1.53,1.53,0,0,1-1.92.38,5.83,5.83,0,0,1-1.06-.88,5.23,5.23,0,0,0-5.05-1.41,5.63,5.63,0,0,0-2.75,1.68,5.48,5.48,0,0,1-1,.87,1.57,1.57,0,0,1-1.94-.32,1.61,1.61,0,0,1-.14-2,11.58,11.58,0,0,1,1.08-1.14A9.34,9.34,0,0,1,271.08,60a8.31,8.31,0,0,1,3.16-1.12C274.73,58.76,275.23,58.75,275.73,58.71Z" fill="#68e1fd"></path><path d="M277.86,67.48a2.6,2.6,0,1,1-2.65-2.55A2.58,2.58,0,0,1,277.86,67.48Z" fill="#68e1fd"></path><g opacity="0.08"><path d="M168.26,58.85l1,3.86c.22.85.43,1.64.57,2.42h0c.18-.77.43-1.58.68-2.4l1.24-3.88H173l1.18,3.8c.28.91.5,1.71.67,2.48h0a21.49,21.49,0,0,1,.58-2.46l1.08-3.82h1.37l-2.45,7.6h-1.26L173,62.82c-.26-.84-.48-1.6-.67-2.49h0a24.73,24.73,0,0,1-.69,2.51l-1.23,3.61h-1.25l-2.29-7.6Z"></path><path d="M180,58.85l1,3.86c.22.85.42,1.64.56,2.42h.05c.17-.77.42-1.58.67-2.4l1.24-3.88h1.16l1.18,3.8c.28.91.5,1.71.68,2.48h0a23.83,23.83,0,0,1,.58-2.46l1.09-3.82h1.36l-2.45,7.6h-1.25l-1.16-3.63a24.6,24.6,0,0,1-.68-2.49h0a22.38,22.38,0,0,1-.69,2.51l-1.22,3.61h-1.26l-2.29-7.6Z"></path><path d="M191.75,58.85l1,3.86c.22.85.43,1.64.57,2.42h0c.18-.77.43-1.58.68-2.4l1.24-3.88h1.16l1.18,3.8c.28.91.5,1.71.67,2.48h.05a21.49,21.49,0,0,1,.58-2.46L200,58.85h1.37l-2.45,7.6h-1.26l-1.16-3.63c-.26-.84-.48-1.6-.67-2.49h0a24.73,24.73,0,0,1-.69,2.51l-1.23,3.61h-1.25l-2.3-7.6Z"></path><path d="M201.81,65.63a.94.94,0,1,1,1.87,0,.94.94,0,1,1-1.87,0Z"></path></g></svg>